<svg id="レイヤー_1" data-name="レイヤー 1" xmlns="http://www.w3.org/2000/svg" xmlns:xlink="http://www.w3.org/1999/xlink" width="403.18" height="81.78" viewBox="0 0 403.18 81.78"><defs><style>.cls-1{fill:#231815;}.cls-2{fill:#717171;}.cls-13,.cls-3{fill:#e40b20;}.cls-4{fill:url(#名称未設定グラデーション_54);}.cls-5{fill:url(#名称未設定グラデーション_54-2);}.cls-6{fill:url(#名称未設定グラデーション_54-3);}.cls-7{fill:url(#名称未設定グラデーション_67);}.cls-8{fill:url(#新規グラデーションスウォッチ_2);}.cls-9{fill:url(#新規グラデーションスウォッチ_2-2);}.cls-10{fill:url(#新規グラデーションスウォッチ_2-3);}.cls-11,.cls-12{fill:#fff;}.cls-12,.cls-13{fill-rule:evenodd;}</style><linearGradient id="名称未設定グラデーション_54" x1="37.31" y1="19.36" x2="37.31" y2="71.78" gradientUnits="userSpaceOnUse"><stop offset="0" stop-color="#fff"/><stop offset="0.52" stop-color="#fff"/><stop offset="0.6" stop-color="#fff"/><stop offset="0.64" stop-color="#fafafa"/><stop offset="0.69" stop-color="#ececec"/><stop offset="0.7" stop-color="#e6e6e6"/><stop offset="0.82" stop-color="#e1e1e1"/><stop offset="0.95" stop-color="#d3d3d3"/><stop offset="1" stop-color="#ccc"/></linearGradient><linearGradient id="名称未設定グラデーション_54-2" x1="91.49" y1="18.51" x2="91.49" y2="71.24" xlink:href="#名称未設定グラデーション_54"/><linearGradient id="名称未設定グラデーション_54-3" x1="145.71" y1="20.02" x2="145.71" y2="71.56" xlink:href="#名称未設定グラデーション_54"/><linearGradient id="名称未設定グラデーション_67" x1="200.14" y1="19.48" x2="200.14" y2="70.69" gradientUnits="userSpaceOnUse"><stop offset="0" stop-color="#fff"/><stop offset="0.52" stop-color="#fff"/><stop offset="0.6" stop-color="#fff"/><stop offset="0.64" stop-color="#fafafa"/><stop offset="0.68" stop-color="#ececec"/><stop offset="0.7" stop-color="#e6e6e6"/><stop offset="0.82" stop-color="#e1e1e1"/><stop offset="0.95" stop-color="#d3d3d3"/><stop offset="1" stop-color="#ccc"/></linearGradient><linearGradient id="新規グラデーションスウォッチ_2" x1="257.69" y1="15.31" x2="257.69" y2="71.32" gradientUnits="userSpaceOnUse"><stop offset="0" stop-color="#fff"/><stop offset="0.16" stop-color="#fffffc"/><stop offset="0.26" stop-color="#fffef4"/><stop offset="0.35" stop-color="#fffde6"/><stop offset="0.42" stop-color="#fffbd2"/><stop offset="0.48" stop-color="#fff9b7"/><stop offset="0.54" stop-color="#fff697"/><stop offset="0.6" stop-color="#fff373"/><stop offset="0.62" stop-color="#fff36e"/><stop offset="0.65" stop-color="#fff260"/><stop offset="0.68" stop-color="#fff049"/><stop offset="0.7" stop-color="#fe3"/><stop offset="0.78" stop-color="#ffee2e"/><stop offset="0.87" stop-color="#ffed20"/><stop offset="0.97" stop-color="#ffeb09"/><stop offset="1" stop-color="#ffea00"/></linearGradient><linearGradient id="新規グラデーションスウォッチ_2-2" x1="311.48" y1="18.4" x2="311.48" y2="70.35" xlink:href="#新規グラデーションスウォッチ_2"/><linearGradient id="新規グラデーションスウォッチ_2-3" x1="365.17" y1="17.49" x2="365.17" y2="70.77" xlink:href="#新規グラデーションスウォッチ_2"/></defs><title>logo_調整版</title><path class="cls-1" d="M31.81,81.78a10,10,0,0,1-8.63-4.94,25.24,25.24,0,0,1-12.71,4H10a10,10,0,0,1-6.9-2.76A10.06,10.06,0,0,1,0,70.81V60.36a10,10,0,0,1,5.51-8.94c0-.18,0-.37,0-.59V46A10,10,0,0,1,2,38.37V28.83a10,10,0,0,1,10-10h9.81a10,10,0,0,1,10-9.47H42.5a10,10,0,0,1,10,10v1.17A10,10,0,0,1,54,21.77a10,10,0,0,1,7.08-2.94h2.19a10,10,0,0,1,10,10v9.54a10,10,0,0,1-5.1,8.72V50.9a10,10,0,0,1,6.44,9.34V70.81a10,10,0,0,1-10,10c-.34,0-.68,0-1,0A32,32,0,0,1,51,77a10,10,0,0,1-8.52,4.76Z"/><path class="cls-1" d="M68.89,81.24a10,10,0,0,1-10-10V61.76a9.78,9.78,0,0,1,.46-3l-.11-.08a10.06,10.06,0,0,1-4-8V39.83a10,10,0,0,1,6.67-9.43c1.85-.65,3.45-1.22,4.42-12.73a10.05,10.05,0,0,1,10-9.16H87.36a10,10,0,0,1,9.91,11.36h20.47a10,10,0,0,1,10,10v9.9a10,10,0,0,1-10,10h-3.31v1.3c-.09,17.59-12,30-29,30.17H68.89Z"/><path class="cls-1" d="M151.75,81.56c-6.44,0-23.55,0-23.69-20.15V58.7h-8.47a10,10,0,0,1-10-10V38.8a10,10,0,0,1,4.26-8.18c0-.07,0-10.6,0-10.6a10,10,0,0,1,10-10h44.23a10,10,0,0,1,10,10V30.41c0,.19,0,.38,0,.57a10,10,0,0,1,3.78,7.82v9.9a10,10,0,0,1-2.56,6.67A9.87,9.87,0,0,1,181.05,61V71.54a10,10,0,0,1-10,10H153.54Z"/><path class="cls-1" d="M174.62,80.69a10,10,0,0,1-10-10V60.18a10,10,0,0,1,10-10h17c7-.06,10.48-1.09,11-1.37l.14-.08a10.07,10.07,0,0,1-3.12-.53c-9.31-3.19-19.45-6.29-27.11-8.3a10,10,0,0,1-7.47-9.67V19.48A9.92,9.92,0,0,1,169,11.57a10.07,10.07,0,0,1,8.62-1.78c11.3,2.93,23.18,6.49,28.89,8.67l.3.12a10,10,0,0,1,8-4.06h10.82a10,10,0,0,1,10,10V42.81c-.08,13.86-4.3,23.41-13.28,30.08-7.15,5.53-15.53,7.66-30.83,7.8H174.62Z"/><path class="cls-1" d="M239.34,81.32a10,10,0,0,1-10-10v-10a10,10,0,0,1,1.4-5.1,20.71,20.71,0,0,1-2.13-9,19.54,19.54,0,0,1,.35-3.65A10,10,0,0,1,222,34V25a10,10,0,0,1,9.91-10l15.9-.15A10,10,0,0,1,257.57,7h8.12a10,10,0,0,1,5.49-1.64h5.22c.28,0,.57,0,.85,0s.57,0,.85,0h5.29a10,10,0,0,1,10,10v8.07a10,10,0,0,1-1.64,5.49v4.6a10,10,0,0,1-9.91,10l-3.52,0v5.34c.07,9.9-.63,15-2.71,19.42-3.81,7.95-12.79,13.06-22.9,13.06Z"/><path class="cls-1" d="M306,80.35c-.91,0-2.27,0-3.93-.07a10.16,10.16,0,0,1-3.15-.65,10,10,0,0,1-2.82.41H284.75a10,10,0,0,1-9.26-13.79,147.86,147.86,0,0,0,5.68-16.41,10,10,0,0,1-6.37-9.32V29.77a10,10,0,0,1,10-10h1.35q0-.82.09-1.8a10,10,0,0,1,10-9.57h10.51a10,10,0,0,1,9.85,8.3,10,10,0,0,1,5.15-1.43h10.57a10,10,0,0,1,7.49,3.37c5.16,5.83,6.69,11.08,7.71,18.73a93.85,93.85,0,0,1,.7,12.75c0,.93,0,1.91,0,3.27v.14c0,.89,0,2-.07,3.32a10,10,0,0,1-10,9.83h-8.15c-.22.55-.45,1.09-.7,1.62C326.66,73.77,320.52,80.35,306,80.35Z"/><path class="cls-1" d="M374.23,80.77c-7.35,0-13.28-2.32-17.14-6.39a10,10,0,0,1-9.17,6H337.17a10,10,0,0,1-9.77-12.17c2.87-12.9,4.44-18.76,8.84-33l.4-1.3c2.53-8.22,3-9.7,5.74-19.23A10,10,0,0,1,352,7.49h11.3A10,10,0,0,1,372.65,21c-.46,1.21-.85,2.25-1.2,3.19a16,16,0,0,1,7.69,4.8,10.06,10.06,0,0,1,3.29-.56h10.75a10,10,0,0,1,10,10.7c-.11,1.56-.2,3-.26,4.05,0,0-.09,1.34-.11,1.67-.6,11.69-1.25,17.17-5.33,24C392.9,76.55,384.65,80.77,374.23,80.77Z"/><path class="cls-2" d="M31.81,76.78a5,5,0,0,1-5-5V66.24c-.12.19-.24.38-.37.56a20.41,20.41,0,0,1-16.21,9H10a5,5,0,0,1-5-5V60.36a5,5,0,0,1,4.19-4.93c.38-.06,1.24-.2,1.34-4.54V43.15A5,5,0,0,1,7,38.37V28.83a5,5,0,0,1,5-5h14.8V19.36a5,5,0,0,1,5-5H42.5a5,5,0,0,1,5,5v4.51a5,5,0,0,1,3.78,2.48,2.59,2.59,0,0,0,2.64,1.31A3.28,3.28,0,0,0,57,26a5,5,0,0,1,4.11-2.16h2.19a5,5,0,0,1,5,5v9.54a5,5,0,0,1-5,5h-.1v7.82c0,3.17.72,3.66,2.79,4.24a5,5,0,0,1,3.65,4.81V70.81a5,5,0,0,1-5,5l-.52,0c-7.63-.8-13.18-3.64-16.6-8.51v4.5a5,5,0,0,1-5,5Z"/><path class="cls-2" d="M31.81,76.78a5,5,0,0,1-5-5V66.24c-.12.19-.24.38-.37.56a20.41,20.41,0,0,1-16.21,9H10a5,5,0,0,1-5-5V60.36a5,5,0,0,1,4.19-4.93c.38-.06,1.24-.2,1.34-4.54V43.15A5,5,0,0,1,7,38.37V28.83a5,5,0,0,1,5-5h14.8V19.36a5,5,0,0,1,5-5H42.5a5,5,0,0,1,5,5v4.51a5,5,0,0,1,3.78,2.48,2.59,2.59,0,0,0,2.64,1.31A3.28,3.28,0,0,0,57,26a5,5,0,0,1,4.11-2.16h2.19a5,5,0,0,1,5,5v9.54a5,5,0,0,1-5,5h-.1v7.82c0,3.17.72,3.66,2.79,4.24a5,5,0,0,1,3.65,4.81V70.81a5,5,0,0,1-5,5l-.52,0c-7.63-.8-13.18-3.64-16.6-8.51v4.5a5,5,0,0,1-5,5Z"/><path class="cls-3" d="M31.81,76.78a5,5,0,0,1-5-5V66.24c-.12.19-.24.38-.37.56a20.41,20.41,0,0,1-16.21,9H10a5,5,0,0,1-5-5V60.36a5,5,0,0,1,4.19-4.93c.38-.06,1.24-.2,1.34-4.54V43.15A5,5,0,0,1,7,38.37V28.83a5,5,0,0,1,5-5h14.8V19.36a5,5,0,0,1,5-5H42.5a5,5,0,0,1,5,5v4.51a5,5,0,0,1,3.78,2.48,2.59,2.59,0,0,0,2.64,1.31A3.28,3.28,0,0,0,57,26a5,5,0,0,1,4.11-2.16h2.19a5,5,0,0,1,5,5v9.54a5,5,0,0,1-5,5h-.1v7.82c0,3.17.72,3.66,2.79,4.24a5,5,0,0,1,3.65,4.81V70.81a5,5,0,0,1-5,5l-.52,0c-7.63-.8-13.18-3.64-16.6-8.51v4.5a5,5,0,0,1-5,5Z"/><path class="cls-2" d="M68.89,76.24a5,5,0,0,1-5-5V61.76a5,5,0,0,1,5-5H82.37c4.28,0,5.72-1.41,5.88-5.79V44.77H83.7C80.06,50,75.13,53,66.64,55.5a4.77,4.77,0,0,1-1.39.2,5,5,0,0,1-5-5V39.83a5,5,0,0,1,3.33-4.72c4-1.42,6.58-3.28,7.74-17a5,5,0,0,1,5-4.58H87.36a5,5,0,0,1,4.94,5.76c-.37,2.43-.65,4.17-.91,5.6h26.35a5,5,0,0,1,5,5v9.9a5,5,0,0,1-5,5h-8.31v6.3c-.07,14.91-9.75,25-24.08,25.17H68.89Z"/><path class="cls-2" d="M68.89,76.24a5,5,0,0,1-5-5V61.76a5,5,0,0,1,5-5H82.37c4.28,0,5.72-1.41,5.88-5.79V44.77H83.7C80.06,50,75.13,53,66.64,55.5a4.77,4.77,0,0,1-1.39.2,5,5,0,0,1-5-5V39.83a5,5,0,0,1,3.33-4.72c4-1.42,6.58-3.28,7.74-17a5,5,0,0,1,5-4.58H87.36a5,5,0,0,1,4.94,5.76c-.37,2.43-.65,4.17-.91,5.6h26.35a5,5,0,0,1,5,5v9.9a5,5,0,0,1-5,5h-8.31v6.3c-.07,14.91-9.75,25-24.08,25.17H68.89Z"/><path class="cls-3" d="M68.89,76.24a5,5,0,0,1-5-5V61.76a5,5,0,0,1,5-5H82.37c4.28,0,5.72-1.41,5.88-5.79V44.77H83.7C80.06,50,75.13,53,66.64,55.5a4.77,4.77,0,0,1-1.39.2,5,5,0,0,1-5-5V39.83a5,5,0,0,1,3.33-4.72c4-1.42,6.58-3.28,7.74-17a5,5,0,0,1,5-4.58H87.36a5,5,0,0,1,4.94,5.76c-.37,2.43-.65,4.17-.91,5.6h26.35a5,5,0,0,1,5,5v9.9a5,5,0,0,1-5,5h-8.31v6.3c-.07,14.91-9.75,25-24.08,25.17H68.89Z"/><path class="cls-2" d="M151.75,76.56c-11.15,0-18.6-2.58-18.69-15.19V53.7H119.59a5,5,0,0,1-5-5V38.8a5,5,0,0,1,5-5h.57a5,5,0,0,1-1.32-3.39V20a5,5,0,0,1,5-5h44.23a5,5,0,0,1,5,5V30.41a5,5,0,0,1-1.32,3.39h.09a5,5,0,0,1,5,5v9.9a5,5,0,0,1-5,5H154V56h17.06a5,5,0,0,1,5,5V71.54a5,5,0,0,1-5,5H153.49Z"/><path class="cls-2" d="M151.75,76.56c-11.15,0-18.6-2.58-18.69-15.19V53.7H119.59a5,5,0,0,1-5-5V38.8a5,5,0,0,1,5-5h.57a5,5,0,0,1-1.32-3.39V20a5,5,0,0,1,5-5h44.23a5,5,0,0,1,5,5V30.41a5,5,0,0,1-1.32,3.39h.09a5,5,0,0,1,5,5v9.9a5,5,0,0,1-5,5H154V56h17.06a5,5,0,0,1,5,5V71.54a5,5,0,0,1-5,5H153.49Z"/><path class="cls-3" d="M151.75,76.56c-11.15,0-18.6-2.58-18.69-15.19V53.7H119.59a5,5,0,0,1-5-5V38.8a5,5,0,0,1,5-5h.57a5,5,0,0,1-1.32-3.39V20a5,5,0,0,1,5-5h44.23a5,5,0,0,1,5,5V30.41a5,5,0,0,1-1.32,3.39h.09a5,5,0,0,1,5,5v9.9a5,5,0,0,1-5,5H154V56h17.06a5,5,0,0,1,5,5V71.54a5,5,0,0,1-5,5H153.49Z"/><path class="cls-2" d="M174.62,75.69a5,5,0,0,1-5-5V60.18a5,5,0,0,1,5-5h17c7-.06,11.82-1,13.48-2l.28-.15c2.74-1.35,4.4-4.37,4.44-8.08V24.52a5,5,0,0,1,5-5h10.82a5,5,0,0,1,5,5V42.81c-.08,12.3-3.55,20.33-11.26,26.06-6.24,4.83-13.82,6.69-27.9,6.82H174.62Zm28.31-31.95a5.05,5.05,0,0,1-1.62-.27c-9.42-3.23-19.69-6.37-27.47-8.4a5,5,0,0,1-3.73-4.84V19.48a5,5,0,0,1,5-5,4.82,4.82,0,0,1,1.25.16c11.15,2.88,22.81,6.37,28.36,8.49a5,5,0,0,1,3.21,4.67V38.74a5,5,0,0,1-5,5Z"/><path class="cls-2" d="M174.62,75.69a5,5,0,0,1-5-5V60.18a5,5,0,0,1,5-5h17c7-.06,11.82-1,13.48-2l.28-.15c2.74-1.35,4.4-4.37,4.44-8.08V24.52a5,5,0,0,1,5-5h10.82a5,5,0,0,1,5,5V42.81c-.08,12.3-3.55,20.33-11.26,26.06-6.24,4.83-13.82,6.69-27.9,6.82H174.62Zm28.31-31.95a5.05,5.05,0,0,1-1.62-.27c-9.42-3.23-19.69-6.37-27.47-8.4a5,5,0,0,1-3.73-4.84V19.48a5,5,0,0,1,5-5,4.82,4.82,0,0,1,1.25.16c11.15,2.88,22.81,6.37,28.36,8.49a5,5,0,0,1,3.21,4.67V38.74a5,5,0,0,1-5,5Z"/><path class="cls-3" d="M174.62,75.69a5,5,0,0,1-5-5V60.18a5,5,0,0,1,5-5h17c7-.06,11.82-1,13.48-2l.28-.15c2.74-1.35,4.4-4.37,4.44-8.08V24.52a5,5,0,0,1,5-5h10.82a5,5,0,0,1,5,5V42.81c-.08,12.3-3.55,20.33-11.26,26.06-6.24,4.83-13.82,6.69-27.9,6.82H174.62Zm28.31-31.95a5.05,5.05,0,0,1-1.62-.27c-9.42-3.23-19.69-6.37-27.47-8.4a5,5,0,0,1-3.73-4.84V19.48a5,5,0,0,1,5-5,4.82,4.82,0,0,1,1.25.16c11.15,2.88,22.81,6.37,28.36,8.49a5,5,0,0,1,3.21,4.67V38.74a5,5,0,0,1-5,5Z"/><path class="cls-3" d="M239.34,76.32a5,5,0,0,1-5-5v-10A5,5,0,0,1,237,56.87,15.38,15.38,0,0,1,236,39l-4,0a5,5,0,0,1-5-5V25a5,5,0,0,1,4.95-5l20.63-.19V17a5,5,0,0,1,5-5h9.9a5,5,0,0,1,3.71-1.64h5.22a5.2,5.2,0,0,0,1.7,0h5.29a5,5,0,0,1,5,5v8.07a5,5,0,0,1-1.64,3.71v6.38a5,5,0,0,1-5,5l-8.47.08V48.84c.07,9.1-.52,13.63-2.23,17.31-3,6.19-10.18,10.17-18.38,10.17Z"/><path class="cls-3" d="M306,75.35c-.87,0-2.17,0-3.73-.07A5,5,0,0,1,299.15,74a5,5,0,0,1-3,1H284.75a5,5,0,0,1-4.63-6.89,147.36,147.36,0,0,0,7.35-22.75l-2.43.11h-.24a5,5,0,0,1-5-5V29.77a5,5,0,0,1,5-5h6.07c.13-1.72.24-3.7.36-6.58a5,5,0,0,1,5-4.79h10.51a5,5,0,0,1,5,5.3c-.14,2.28-.25,4-.47,6.07h0a17.84,17.84,0,0,1,5.46.83,5,5,0,0,1,5-5.33h10.57A5,5,0,0,1,336.06,22c4.36,4.92,5.57,9.11,6.5,16.07a91.13,91.13,0,0,1,.65,12.09c0,.9,0,1.84,0,3.15,0,.93-.05,2-.08,3.5a5,5,0,0,1-5,4.91H327.27a4.88,4.88,0,0,1-1-.11,20.83,20.83,0,0,1-1.53,4.56C321.86,72.23,315.55,75.35,306,75.35Zm-.26-20.09h0c0-.11,0-.23,0-.36Z"/><path class="cls-3" d="M374.23,75.77c-10.71,0-17.09-5.5-17.09-14.72,0-1.46.16-4.41.4-7.09-1.39,2.49-2.62,7.14-4.72,17.45a5,5,0,0,1-4.9,4H337.17a5,5,0,0,1-3.9-1.87,5.05,5.05,0,0,1-1-4.22A333.86,333.86,0,0,1,341,36.73l.4-1.31c2.55-8.27,3-9.76,5.77-19.31a5,5,0,0,1,4.8-3.62h11.3A5,5,0,0,1,368,19.25c-1.53,4.06-2.4,6.39-3.39,9.41a14.32,14.32,0,0,1,1.87-.13,11.67,11.67,0,0,1,11.39,7.93,5,5,0,0,1,4.59-3h10.75a5,5,0,0,1,5,5.35c-.12,1.66-.21,3.16-.27,4.25,0,.64-.07,1.15-.1,1.46-.61,11.88-1.29,16.21-4.63,21.83C389.54,72.42,382.82,75.77,374.23,75.77Zm3.91-18.89"/><path class="cls-4" d="M25.43,43.11v7.35c0,6.14-1,10.51-3.1,13.49A15.33,15.33,0,0,1,10,70.81V60.36c3.71-.6,5.41-3.46,5.53-9.41V43.11ZM12,28.83h19.8V19.36H42.5v9.47h4.44a7.56,7.56,0,0,0,7,3.83,8.26,8.26,0,0,0,7.17-3.83h2.19v9.54H42.5V71.78H31.81V38.37H12ZM58.18,43.11v8.08c0,5,1.88,7.77,6.44,9.05V70.81C53.5,69.66,48.46,63.77,48.4,52V43.11Z"/><path class="cls-5" d="M65.25,39.83c7.23-2.55,9.9-7.66,11-21.32H87.36c-1,6.31-1.22,7.65-2.37,11.36h32.75v9.9H104.43v11.3c-.06,12.15-7.59,20.05-19.13,20.17H68.89V61.76H81.83c7.41.18,11.18-3.4,11.42-10.69V39.77H80.92c-3.1,5.59-7.11,8.44-15.67,10.93Z"/><path class="cls-6" d="M119.59,38.8h18.47V30.41H123.84V20h44.23V30.41H149V38.8h22.85v9.9H149v8.75c0,3,.55,3.58,3.77,3.58h18.29V71.54H153.49c-12.21.24-15.37-1.88-15.43-10.21V48.7H119.59Z"/><path class="cls-7" d="M225.66,24.52V42.81c-.07,10.63-2.86,17.31-9.24,22-5.34,4.13-12.09,5.71-25,5.83H174.62V60.18h17c7.22-.06,13.12-1,16-2.67,4.44-2.19,7.17-6.93,7.23-12.52V24.52Zm-50.55-5c10.81,2.79,22.42,6.26,27.82,8.32V38.74c-9.41-3.22-19.92-6.44-27.82-8.51Z"/><path class="cls-8" d="M257.57,24.72V17h10.75v7.77l13.43-.06v8.81l-13.43.12V48.84c.06,8.44-.43,12.33-1.76,15.19-2.13,4.43-7.66,7.29-13.85,7.29H239.34v-10h12.82c3.83-.3,5.59-2,5.71-5.46C255,57.53,253.62,58,250.94,58a14.48,14.48,0,0,1-8.14-2.37,10.88,10.88,0,0,1-4.19-8.38,11.72,11.72,0,0,1,3.65-8.14c2.43-2.37,5.53-3.46,9.6-3.46a16.44,16.44,0,0,1,5.71.91V33.77L232,34V25Zm-9.24,22c0,1.83,2,3.16,4.68,3.16,2.43,0,4.19-1.27,4.19-3.16s-1.88-3-4.43-3S248.33,45,248.33,46.71Zm22.85-31.4h5.22v8.07h-5.22Zm12.2,0v8.07H278.1V15.31Z"/><path class="cls-9" d="M295.38,29.77c.42-3.35.6-5.72.85-11.37h10.51a113.5,113.5,0,0,1-1.16,11.37h5.71c4.32,0,7.84,1.94,9.18,5.1,1.21,2.73,1.82,7.53,1.82,13.79,0,7.65-.61,12.27-2.07,15.31q-3,6.38-14.21,6.38c-.85,0-2.07,0-3.53-.06V60.2c1.1.06,2.8.06,3,.06,3.22,0,4.37-.73,5-3.1a42.62,42.62,0,0,0,.73-8.08,35.34,35.34,0,0,0-.6-6.74A3.65,3.65,0,0,0,307.1,40h-3.28c-3,15.68-4.62,21.69-7.71,30H284.75a148.79,148.79,0,0,0,8.92-29.95l-8.87.43V29.77Zm36.93-4.5c3.28,3.7,4.38,6.56,5.29,13.42a84.84,84.84,0,0,1,.61,11.43c0,1.51-.07,3.15-.12,6.56H327.27c.19-4.19.24-6.26.24-8.69,0-8-.42-11.42-1.88-15.19a35,35,0,0,0-3.89-7.53Z"/><path class="cls-10" d="M363.29,17.49c-3,7.9-3.52,9.48-7.11,21.45,4.31-3.83,7.29-5.41,10.27-5.41,4.68,0,7.41,3.34,7.41,9,0,.85-.12,3-.3,4.86-.3,3.71-.49,6.5-.49,8.39,0,3.16.67,4.13,2.8,4.13,2.67,0,4.49-1.77,5.22-5.11.79-3.82,1.1-7.59,1.34-16.34h10.75c-.18,2.61-.3,4.86-.36,5.71-.61,11.79-1.28,15.13-3.95,19.62s-7.84,7-14.64,7c-8,0-12.09-3.34-12.09-9.72,0-1.82.3-6.5.66-9.35A24.82,24.82,0,0,0,363,49c0-1.76-1-3.16-2.31-3.16-1.7,0-4.74,1.88-6.38,4-2.31,2.92-3.64,7.17-6.38,20.6H337.17a327,327,0,0,1,8.62-32.2c2.92-9.48,3.29-10.63,6.2-20.72Z"/><path class="cls-1" d="M53.62,33.13A16.57,16.57,0,1,1,70.1,16.56,16.54,16.54,0,0,1,53.62,33.13Z"/><path class="cls-11" d="M53.57,23.09a6.11,6.11,0,0,1-6-5.09H40.74a12.9,12.9,0,0,0,25.72,0H59.6A6.11,6.11,0,0,1,53.57,23.09Z"/><path class="cls-12" d="M53.63,12.38a4.19,4.19,0,1,0,4.16,4.18A4.18,4.18,0,0,0,53.63,12.38Z"/><path class="cls-12" d="M53.63,12.38a4.19,4.19,0,1,0,4.16,4.18A4.18,4.18,0,0,0,53.63,12.38Z"/><path class="cls-13" d="M53.57,10.34a6.11,6.11,0,0,1,6,5.1h6.86a12.9,12.9,0,0,0-25.72,0h6.81A6.11,6.11,0,0,1,53.57,10.34Z"/></svg>